<?xml version="1.0" encoding="utf-8"?>
<!-- Generator: Adobe Illustrator 24.1.0, SVG Export Plug-In . SVG Version: 6.00 Build 0)  -->
<svg version="1.1" id="Layer_1" xmlns="http://www.w3.org/2000/svg" xmlns:xlink="http://www.w3.org/1999/xlink" x="0px" y="0px"
	 viewBox="0 0 480 480" style="enable-background:new 0 0 480 480;" xml:space="preserve">
<style type="text/css">
	.st0{opacity:0.2;fill:#00A7F4;enable-background:new    ;}
	.st1{fill:#00A7F4;}
	.st2{enable-background:new    ;}
</style>
<path class="st0" d="M395.7,89.7l17-16.4C364.8,23.7,308.9,0,240,0v23.6C298.7,23.5,354.9,47.4,395.7,89.7z"/>
<path class="st1" d="M412.6,73.3l-17,16.4c39,40.3,60.8,94.2,60.8,150.3c0,119.5-96.9,216.4-216.4,216.4S23.6,359.5,23.6,240
	S120.5,23.6,240,23.6V0C176.4,0,119.1,23.2,73.3,67.4c-95.3,92.1-98,244-5.9,339.4s244,98,339.4,5.9S504.7,168.6,412.6,73.3z"/>
<g class="st2">
	<path d="M120.1,278c0-3.9,2.6-7.1,6.7-7.1c4.1,0,6.7,3.2,6.7,7.1s-2.6,7.1-6.7,7.1C122.7,285.1,120.1,282,120.1,278z M131.3,278
		c0-2.7-1.6-5.2-4.5-5.2c-2.9,0-4.5,2.5-4.5,5.2c0,2.8,1.6,5.2,4.5,5.2C129.7,283.3,131.3,280.8,131.3,278z"/>
</g>
<g class="st2">
	<path d="M137.1,284.8v-11.7h-2.2v-1.8h2.2v-1c0-2.8,1.5-4.4,3.9-4.4c1.1,0,2,0.3,2.9,1l-0.9,1.3c-0.4-0.4-1-0.6-1.7-0.6
		c-1.4,0-2.2,0.9-2.2,2.7v1h2.7v1.8h-2.7v11.7H137.1z"/>
</g>
<g class="st2">
	<path d="M150.9,278c0-4,2.7-7.1,6.7-7.1c2.5,0,3.9,1,5,2.4l-1.4,1.3c-0.9-1.2-2-1.7-3.4-1.7c-2.9,0-4.7,2.2-4.7,5.2
		c0,3,1.8,5.2,4.7,5.2c1.4,0,2.5-0.6,3.4-1.8l1.4,1.3c-1,1.3-2.5,2.4-5,2.4C153.7,285.1,150.9,282,150.9,278z"/>
</g>
<g class="st2">
	<path d="M174.4,284.8v-1.9c-1,1.2-2.8,2.2-4.8,2.2c-2.8,0-4.3-1.4-4.3-4.3v-9.5h2.1v8.9c0,2.4,1.2,3.1,3.1,3.1c1.6,0,3.2-1,4-2
		v-9.9h2.1v13.5H174.4z"/>
</g>
<g class="st2">
	<path d="M179.5,283l1.1-1.5c0.9,1,2.6,1.9,4.5,1.9c2.1,0,3.2-1,3.2-2.3c0-3.3-8.4-1.3-8.4-6.3c0-2.1,1.8-3.9,5-3.9
		c2.3,0,3.9,0.9,5,2l-1,1.5c-0.8-1-2.3-1.7-4-1.7c-1.8,0-3,0.9-3,2.1c0,2.9,8.4,1,8.4,6.3c0,2.3-1.8,4.1-5.3,4.1
		C182.7,285.1,180.8,284.4,179.5,283z"/>
</g>
<g class="st2">
	<path d="M194.2,282v-8.8H192v-1.8h2.2v-3.7h2.1v3.7h2.7v1.8h-2.7v8.4c0,1,0.4,1.7,1.3,1.7c0.6,0,1.1-0.3,1.4-0.6l0.6,1.6
		c-0.5,0.5-1.3,0.9-2.5,0.9C195.2,285.1,194.2,284,194.2,282z"/>
</g>
<g class="st2">
	<path d="M200.8,278c0-3.9,2.6-7.1,6.7-7.1c4.1,0,6.7,3.2,6.7,7.1s-2.6,7.1-6.7,7.1C203.3,285.1,200.8,282,200.8,278z M211.9,278
		c0-2.7-1.6-5.2-4.5-5.2c-2.9,0-4.5,2.5-4.5,5.2c0,2.8,1.6,5.2,4.5,5.2C210.3,283.3,211.9,280.8,211.9,278z"/>
</g>
<g class="st2">
	<path d="M233.7,284.8v-9.2c0-1.7-0.7-2.8-2.5-2.8c-1.4,0-2.9,1-3.6,2.1v9.9h-2.1v-9.2c0-1.7-0.7-2.8-2.5-2.8c-1.4,0-2.8,1-3.6,2.1
		v9.9h-2.1v-13.5h2.1v2c0.6-0.9,2.4-2.3,4.4-2.3c2,0,3.2,1.1,3.6,2.5c0.8-1.2,2.6-2.5,4.5-2.5c2.5,0,3.8,1.4,3.8,4.1v9.8H233.7z"/>
</g>
<g class="st2">
	<path d="M239.1,278c0-3.9,2.8-7.1,6.7-7.1c4.1,0,6.5,3.2,6.5,7.3v0.5h-10.9c0.2,2.5,1.9,4.7,4.8,4.7c1.6,0,3.1-0.6,4.2-1.7l1,1.4
		c-1.4,1.3-3.2,2.1-5.4,2.1C242,285.1,239.1,282.3,239.1,278z M245.7,272.7c-2.9,0-4.3,2.4-4.4,4.5h8.9
		C250.1,275.2,248.8,272.7,245.7,272.7z"/>
</g>
<g class="st2">
	<path d="M255.4,284.8v-13.5h2.1v2.2c1.1-1.4,2.7-2.5,4.5-2.5v2.2c-0.3,0-0.5-0.1-0.8-0.1c-1.3,0-3.1,1.1-3.7,2.2v9.6H255.4z"/>
</g>
<g class="st2">
	<path d="M263.7,283l1.1-1.5c0.9,1,2.6,1.9,4.5,1.9c2.1,0,3.2-1,3.2-2.3c0-3.3-8.4-1.3-8.4-6.3c0-2.1,1.8-3.9,5-3.9
		c2.3,0,3.9,0.9,5,2l-1,1.5c-0.8-1-2.3-1.7-4-1.7c-1.8,0-3,0.9-3,2.1c0,2.9,8.4,1,8.4,6.3c0,2.3-1.8,4.1-5.3,4.1
		C266.9,285.1,265,284.4,263.7,283z"/>
</g>
<g class="st2">
	<path d="M284.3,278c0-4,2.7-7.1,6.7-7.1c2.5,0,3.9,1,5,2.4l-1.4,1.3c-0.9-1.2-2-1.7-3.4-1.7c-2.9,0-4.7,2.2-4.7,5.2
		c0,3,1.8,5.2,4.7,5.2c1.4,0,2.5-0.6,3.4-1.8l1.4,1.3c-1,1.3-2.5,2.4-5,2.4C287,285.1,284.3,282,284.3,278z"/>
</g>
<g class="st2">
	<path d="M297.6,278c0-3.9,2.6-7.1,6.7-7.1s6.7,3.2,6.7,7.1s-2.6,7.1-6.7,7.1S297.6,282,297.6,278z M308.8,278
		c0-2.7-1.6-5.2-4.5-5.2s-4.5,2.5-4.5,5.2c0,2.8,1.6,5.2,4.5,5.2S308.8,280.8,308.8,278z"/>
</g>
<g class="st2">
	<path d="M330.6,284.8v-9.2c0-1.7-0.7-2.8-2.5-2.8c-1.4,0-2.9,1-3.6,2.1v9.9h-2.1v-9.2c0-1.7-0.7-2.8-2.5-2.8c-1.4,0-2.8,1-3.6,2.1
		v9.9h-2.1v-13.5h2.1v2c0.6-0.9,2.4-2.3,4.4-2.3c2,0,3.2,1.1,3.6,2.5c0.8-1.2,2.6-2.5,4.5-2.5c2.5,0,3.8,1.4,3.8,4.1v9.8H330.6z"/>
</g>
<g class="st2">
	<path d="M336,278c0-3.9,2.8-7.1,6.7-7.1c4.1,0,6.5,3.2,6.5,7.3v0.5h-10.9c0.2,2.5,1.9,4.7,4.8,4.7c1.6,0,3.1-0.6,4.2-1.7l1,1.4
		c-1.4,1.3-3.2,2.1-5.4,2.1C338.8,285.1,336,282.3,336,278z M342.6,272.7c-2.9,0-4.3,2.4-4.4,4.5h8.9
		C347,275.2,345.7,272.7,342.6,272.7z"/>
</g>
<g class="st2">
	<path d="M119.9,320.8v-11.7h-2.2v-1.8h2.2v-1c0-2.8,1.5-4.4,3.9-4.4c1.1,0,2,0.3,2.9,1l-0.9,1.3c-0.4-0.4-1-0.6-1.7-0.6
		c-1.4,0-2.2,0.9-2.2,2.7v1h2.7v1.8H122v11.7H119.9z"/>
</g>
<g class="st2">
	<path d="M127.1,320.8v-13.5h2.1v2.2c1.1-1.4,2.7-2.5,4.5-2.5v2.2c-0.3,0-0.5-0.1-0.8-0.1c-1.3,0-3.1,1.1-3.7,2.2v9.6H127.1z"/>
</g>
<g class="st2">
	<path d="M135.2,314c0-3.9,2.6-7.1,6.7-7.1c4.1,0,6.7,3.2,6.7,7.1s-2.6,7.1-6.7,7.1C137.8,321.1,135.2,318,135.2,314z M146.4,314
		c0-2.7-1.6-5.2-4.5-5.2c-2.9,0-4.5,2.5-4.5,5.2c0,2.8,1.6,5.2,4.5,5.2C144.8,319.3,146.4,316.8,146.4,314z"/>
</g>
<g class="st2">
	<path d="M168.1,320.8v-9.2c0-1.7-0.7-2.8-2.5-2.8c-1.4,0-2.9,1-3.6,2.1v9.9H160v-9.2c0-1.7-0.7-2.8-2.5-2.8c-1.4,0-2.8,1-3.6,2.1
		v9.9h-2.1v-13.5h2.1v2c0.6-0.9,2.4-2.3,4.4-2.3c2,0,3.2,1.1,3.6,2.5c0.8-1.2,2.6-2.5,4.5-2.5c2.5,0,3.8,1.4,3.8,4.1v9.8H168.1z"/>
	<path d="M182.1,318v-8.8h-2.2v-1.8h2.2v-3.7h2.1v3.7h2.7v1.8h-2.7v8.4c0,1,0.4,1.7,1.3,1.7c0.6,0,1.1-0.3,1.4-0.6l0.6,1.6
		c-0.5,0.5-1.3,0.9-2.5,0.9C183.1,321.1,182.1,320,182.1,318z"/>
</g>
<g class="st2">
	<path d="M199.1,320.8v-8.9c0-2.4-1.2-3.1-3.1-3.1c-1.6,0-3.2,1-4,2.1v9.9H190v-18.7h2.1v7.1c0.9-1.1,2.8-2.3,4.8-2.3
		c2.8,0,4.3,1.4,4.3,4.3v9.5H199.1z"/>
</g>
<g class="st2">
	<path d="M204.4,314c0-3.9,2.8-7.1,6.7-7.1c4.1,0,6.5,3.2,6.5,7.3v0.5h-10.9c0.2,2.5,1.9,4.7,4.8,4.7c1.6,0,3.1-0.6,4.2-1.7l1,1.4
		c-1.4,1.3-3.2,2.1-5.4,2.1C207.3,321.1,204.4,318.3,204.4,314z M211,308.7c-2.9,0-4.3,2.4-4.4,4.5h8.9
		C215.5,311.2,214.1,308.7,211,308.7z"/>
</g>
<g class="st2">
	<path d="M227,314c0-3.9,2.9-7.1,7-7.1c4.1,0,6.8,3,6.8,7.4v0.8h-10.1c0.3,1.7,1.6,3,3.9,3c1.1,0,2.7-0.5,3.6-1.3l1.6,2.4
		c-1.3,1.2-3.5,1.9-5.6,1.9C230.1,321.1,227,318.4,227,314z M234,309.9c-2.2,0-3.2,1.5-3.3,2.9h6.7
		C237.2,311.5,236.3,309.9,234,309.9z"/>
</g>
<g class="st2">
	<path d="M252.6,320.8v-1.7c-1.1,1.3-2.5,2.1-4.2,2.1c-3.4,0-6-2.6-6-7.1c0-4.4,2.5-7.1,6-7.1c1.6,0,3.1,0.7,4.2,2.1v-6.9h3.6v18.7
		H252.6z M252.6,316.4v-4.8c-0.6-0.9-1.9-1.5-3.1-1.5c-2,0-3.4,1.6-3.4,3.9c0,2.4,1.4,3.9,3.4,3.9C250.7,318,252,317.3,252.6,316.4z
		"/>
</g>
<g class="st2">
	<path d="M268.5,320.8v-1.7c-0.9,1-2.5,2-4.8,2c-3,0-4.4-1.6-4.4-4.3v-9.6h3.6v8.2c0,1.9,1,2.5,2.5,2.5c1.4,0,2.5-0.8,3.1-1.5v-9.2
		h3.6v13.5H268.5z"/>
</g>
<g class="st2">
	<path d="M281.6,319l1.5-2.6c1,1,3,1.9,4.7,1.9c1.5,0,2.3-0.6,2.3-1.4c0-2.2-8-0.4-8-5.7c0-2.3,2-4.3,5.5-4.3c2.3,0,4.1,0.8,5.4,1.8
		l-1.4,2.5c-0.8-0.8-2.4-1.6-4-1.6c-1.3,0-2.1,0.6-2.1,1.3c0,2,8,0.3,8,5.8c0,2.5-2.1,4.3-5.9,4.3
		C285.3,321.1,283.1,320.4,281.6,319z"/>
</g>
<g class="st2">
	<path d="M295.1,314c0-3.9,2.9-7.1,7-7.1c4.1,0,6.8,3,6.8,7.4v0.8h-10.1c0.3,1.7,1.6,3,3.9,3c1.1,0,2.7-0.5,3.6-1.3l1.6,2.4
		c-1.3,1.2-3.5,1.9-5.6,1.9C298.2,321.1,295.1,318.4,295.1,314z M302.1,309.9c-2.2,0-3.2,1.5-3.3,2.9h6.7
		C305.4,311.5,304.5,309.9,302.1,309.9z"/>
</g>
<g class="st2">
	<path d="M310.5,314c0-4.1,3-7.1,7.2-7.1c2.8,0,4.5,1.2,5.3,2.4l-2.3,2.2c-0.6-1-1.6-1.5-2.9-1.5c-2.2,0-3.7,1.6-3.7,3.9
		c0,2.4,1.5,3.9,3.7,3.9c1.2,0,2.2-0.6,2.9-1.5l2.3,2.2c-0.9,1.2-2.6,2.5-5.3,2.5C313.5,321.1,310.5,318.2,310.5,314z"/>
</g>
<g class="st2">
	<path d="M326.5,317.4v-7h-2.2v-3.1h2.2v-3.7h3.6v3.7h2.7v3.1H330v6.1c0,0.9,0.4,1.5,1.2,1.5c0.5,0,1-0.2,1.2-0.4l0.8,2.7
		c-0.5,0.5-1.5,0.9-3,0.9C327.8,321.1,326.5,319.9,326.5,317.4z"/>
</g>
<g class="st2">
	<path d="M334.1,314c0-3.8,2.7-7.1,7.1-7.1c4.5,0,7.2,3.2,7.2,7.1s-2.7,7.1-7.2,7.1C336.8,321.1,334.1,317.9,334.1,314z M344.7,314
		c0-2.1-1.2-3.9-3.5-3.9c-2.2,0-3.4,1.8-3.4,3.9c0,2.1,1.2,3.9,3.4,3.9C343.5,318,344.7,316.2,344.7,314z"/>
</g>
<g class="st2">
	<path d="M350.9,320.8v-13.5h3.6v1.8c1-1.2,2.6-2.2,4.3-2.2v3.5c-0.3-0.1-0.6-0.1-1-0.1c-1.2,0-2.7,0.7-3.3,1.5v8.9H350.9z"/>
</g>
<g class="st2">
	<path class="st1" d="M157.1,215.1c0-8.9,7.6-15,15.9-17.5c-7.7-2.2-14.8-7.3-14.8-16c0-12,11.7-17.3,22.8-17.3
		c11,0,22.9,5.3,22.9,17.3c0,8.7-7.2,13.8-14.9,16c8.3,2.5,15.9,8.6,15.9,17.5c0,11.3-10.8,18.1-23.9,18.1
		C167.8,233.2,157.1,226.5,157.1,215.1z M196.5,214.2c0-8.7-11.4-12.4-15.5-12.9c-4.1,0.5-15.5,4.2-15.5,12.9
		c0,7.2,7.2,11.6,15.5,11.6C189.2,225.8,196.5,221.4,196.5,214.2z M195.5,182.7c0-6.9-6.5-11-14.5-11c-8.1,0-14.4,4.1-14.4,11
		c0,8.1,10.4,10.8,14.4,11.5C185.1,193.5,195.5,190.8,195.5,182.7z"/>
</g>
<g class="st2">
	<path class="st1" d="M219.7,232l26.9-59.3h-35.9v-7.4h45.5v5.7l-27.3,61H219.7z"/>
</g>
<g class="st2">
	<path class="st1" d="M261.6,180.9c0-9.5,6.6-16.6,16.1-16.6c9.6,0,16.1,7.1,16.1,16.6c0,9.2-6.5,16.3-16.1,16.3
		C268.2,197.2,261.6,190.1,261.6,180.9z M287.8,180.9c0-6.6-4.1-11.5-10.1-11.5c-5.9,0-10.1,4.9-10.1,11.5c0,6.3,4.2,11.2,10.1,11.2
		C283.7,192.1,287.8,187.2,287.8,180.9z M271.3,232l42.6-66.7h5.6L276.8,232H271.3z M296.4,216.8c0-9.3,6.6-16.5,16.1-16.5
		s16,7.2,16,16.5s-6.5,16.4-16,16.4S296.4,226.1,296.4,216.8z M322.6,216.8c0-6.5-4.1-11.4-10.1-11.4c-6.1,0-10.2,4.9-10.2,11.4
		c0,6.4,4.1,11.3,10.2,11.3C318.5,228.1,322.6,223.2,322.6,216.8z"/>
</g>
</svg>
