<?xml version="1.0" encoding="utf-8"?>
<!-- Generator: Adobe Illustrator 22.0.1, SVG Export Plug-In . SVG Version: 6.00 Build 0)  -->
<svg version="1.1" id="Layer_5" xmlns="http://www.w3.org/2000/svg" xmlns:xlink="http://www.w3.org/1999/xlink" x="0px" y="0px"
	 viewBox="0 0 98 98" style="enable-background:new 0 0 98 98;" xml:space="preserve">
<style type="text/css">
	.st0{fill:#00ACC8;}
</style>
<title>dribbble</title>
<path class="st0" d="M97,39.1C91.5,12.6,65.6-4.4,39.1,1S-4.4,32.4,1,58.9c1.3,6.3,3.8,12.2,7.4,17.5c3.5,5.2,8,9.7,13.2,13.2
	c16.6,11.2,38.2,11.2,54.8,0c5.2-3.5,9.7-8,13.2-13.2C97,65.5,99.6,52,97,39.1z M90.8,48.6c-0.6-0.1-14.8-3.2-29.2-1.4
	c-0.3-0.7-0.6-1.4-0.9-2.2c-0.8-2-1.7-4-2.7-6c16.5-6.8,23.2-16.5,23.3-16.6C87.4,29.8,90.7,39,90.8,48.6L90.8,48.6z M76.6,17.6
	c-0.1,0.2-6.1,9.2-21.9,15.1C50,24.2,44.8,16.1,39.1,8.3C52.4,5.1,66.4,8.6,76.6,17.6L76.6,17.6z M39,8.4L39,8.4L39,8.4L39,8.4z
	 M31.2,11.2C36.8,18.9,42,27,46.7,35.3c-12.6,3.3-25.6,5-38.7,5.1C10.7,27.5,19.3,16.7,31.2,11.2L31.2,11.2z M7.1,49
	c0-0.5,0-0.9,0-1.3c14.5,0,29-2,43-6c1.2,2.3,2.3,4.7,3.4,7.1c-0.5,0.2-1.1,0.3-1.7,0.5c-22.6,7.3-34,27.6-34,27.6l0,0
	C11,69.3,7.2,59.3,7.1,49z M49,90.8c-9.7,0-19.2-3.4-26.7-9.6c0.6,0.4,0.9,0.7,0.9,0.7s8-17.5,32.8-26.1l0.3-0.1
	c4,10.3,7,20.9,8.9,31.8C60.2,89.7,54.6,90.9,49,90.8z M72.4,83.7c-1.9-10.2-4.6-20.2-8.2-29.9c8.7-1.3,17.6-0.7,26.1,1.8
	C88.5,67.1,82,77.2,72.4,83.7z"/>
</svg>
