<?xml version="1.0" encoding="utf-8"?>
<!-- Generator: Adobe Illustrator 22.0.1, SVG Export Plug-In . SVG Version: 6.00 Build 0)  -->
<svg version="1.1" id="Layer_6" xmlns="http://www.w3.org/2000/svg" xmlns:xlink="http://www.w3.org/1999/xlink" x="0px" y="0px"
	 viewBox="0 0 98 90" style="enable-background:new 0 0 98 90;" xml:space="preserve">
<style type="text/css">
	.st0{fill:#00ACC8;}
</style>
<title>linkedin</title>
<path class="st0" d="M21.6,90H2.5V28.9h19.1V90z M11.6,21.2h-0.2C4.5,21.2,0,16.5,0,10.6S4.6,0,11.7,0S23,4.6,23.2,10.6
	S18.7,21.2,11.6,21.2L11.6,21.2z M98,90H76.3V58.3c0-8.3-3.4-13.9-10.8-13.9c-5.7,0-8.9,3.8-10.3,7.5c-0.5,1.3-0.5,3.2-0.5,5V90
	H33.2c0,0,0.3-56,0-61.1h21.5v9.6c1.3-4.2,8.1-10.2,19.1-10.2C87.3,28.3,98,37.1,98,56V90z"/>
</svg>
