<?xml version="1.0" encoding="utf-8"?>
<!-- Generator: Adobe Illustrator 22.0.1, SVG Export Plug-In . SVG Version: 6.00 Build 0)  -->
<svg version="1.1" id="Layer_2_1_" xmlns="http://www.w3.org/2000/svg" xmlns:xlink="http://www.w3.org/1999/xlink" x="0px" y="0px"
	 viewBox="0 0 99.9 81.2" style="enable-background:new 0 0 99.9 81.2;" xml:space="preserve">
<style type="text/css">
	.st0{fill:#00ACC8;}
</style>
<title>twitter</title>
<path class="st0" d="M99.9,9.6c-3.7,1.7-7.7,2.7-11.8,3.2c4.3-2.6,7.5-6.6,9-11.3c-4,2.4-8.4,4.1-13,5c-7.8-8.2-20.8-8.6-29-0.8
	c-5.3,5-7.5,12.4-5.9,19.5C32.7,24.3,17.4,16.6,7,3.7c-5.4,9.4-2.7,21.4,6.3,27.4C10,31,6.9,30.2,4,28.6v0.2
	c0,9.8,6.9,18.2,16.5,20.1c-1.8,0.5-3.6,0.7-5.4,0.7c-1.3,0-2.6-0.1-3.9-0.4c2.7,8.3,10.4,14.1,19.1,14.2
	c-7.3,5.7-16.2,8.8-25.4,8.8c-1.6,0-3.3-0.1-4.9-0.3c9.4,6,20.3,9.2,31.4,9.2c37.7,0,58.3-31.2,58.3-58.3c0-0.9,0-1.8-0.1-2.7
	C93.7,17.3,97.2,13.7,99.9,9.6"/>
</svg>
